<?xml version="1.0" standalone="no"?>
<!DOCTYPE svg PUBLIC "-//W3C//DTD SVG 20010904//EN"
 "http://www.w3.org/TR/2001/REC-SVG-20010904/DTD/svg10.dtd">
<svg version="1.0" xmlns="http://www.w3.org/2000/svg"
 width="680.000000pt" height="367.000000pt" viewBox="0 0 680.000000 367.000000"
 preserveAspectRatio="xMidYMid meet">

<g transform="translate(0.000000,367.000000) scale(0.100000,-0.100000)"
fill="#000000" stroke="none">
<path d="M3185 3349 c-297 -15 -577 -91 -658 -177 l-22 -24 52 -47 c53 -50
147 -101 222 -121 24 -6 51 -15 60 -20 19 -10 185 -44 291 -61 168 -26 163
-24 86 -34 -38 -4 -108 -5 -155 -1 -99 7 -308 43 -333 57 -10 5 -24 9 -31 9
-8 0 -46 13 -85 29 -40 16 -73 27 -76 23 -4 -7 16 -107 27 -132 9 -22 49 -238
81 -449 9 -58 19 -146 21 -197 l5 -93 -33 -5 c-17 -3 -76 -10 -129 -16 -91 -9
-142 -27 -186 -63 -26 -21 -52 -96 -52 -151 0 -136 110 -305 260 -401 149 -95
343 -175 468 -192 23 -3 42 -10 42 -14 0 -12 -97 -11 -105 1 -3 6 -18 10 -33
10 -70 0 -322 111 -419 184 -63 48 -183 171 -183 188 0 6 -8 22 -18 36 -48 71
-66 215 -36 288 34 84 124 143 231 152 77 6 83 22 9 22 -115 0 -259 -45 -299
-94 -81 -97 -78 -267 8 -420 49 -87 175 -210 270 -263 103 -59 216 -113 234
-113 11 0 22 -4 25 -9 3 -4 27 -14 53 -21 27 -7 68 -19 93 -27 25 -8 65 -19
90 -24 25 -5 79 -16 120 -24 51 -11 144 -16 290 -18 l215 -3 1 -74 c1 -93 13
-136 54 -195 72 -105 210 -149 346 -109 83 24 133 67 176 154 52 103 52 163 2
267 -19 41 -34 76 -32 77 2 2 53 29 113 61 61 31 140 80 178 107 72 54 164
150 187 195 8 15 21 39 30 53 53 81 65 262 24 344 -47 98 -161 136 -400 136
-109 0 -144 3 -144 13 1 28 32 251 50 362 12 66 24 145 28 175 19 132 44 277
53 306 5 17 10 56 11 87 3 64 -10 83 -79 124 -84 49 -151 68 -358 104 -149 26
-440 39 -640 28z m-210 -1367 c124 -36 237 -54 379 -59 202 -8 324 14 625 114
57 18 110 32 117 29 13 -5 19 -52 30 -217 5 -82 4 -100 -11 -123 -23 -35 -95
-82 -147 -97 -24 -7 -47 -16 -53 -21 -5 -4 -21 -8 -36 -8 -15 0 -54 -6 -86
-14 -120 -30 -306 -40 -503 -27 -102 6 -212 16 -245 22 -33 6 -80 15 -105 19
-116 20 -214 62 -264 113 -27 28 -28 32 -22 96 3 36 9 102 12 146 9 137 -4
128 126 85 62 -21 145 -47 183 -58z m255 -732 c0 -5 -20 -10 -45 -10 -25 0
-45 5 -45 10 0 6 20 10 45 10 25 0 45 -4 45 -10z m878 -90 c56 -107 38 -215
-51 -299 -47 -45 -86 -59 -163 -60 -149 -2 -241 84 -252 235 -4 63 -2 74 17
93 11 11 33 21 49 21 15 0 43 5 62 10 19 6 68 17 108 26 40 8 80 18 88 21 52
20 -35 -76 -192 -212 -26 -22 -30 -35 -13 -35 11 0 133 112 219 202 72 76 88
75 128 -2z"/>
<path d="M3967 1068 c-48 -50 -87 -94 -85 -100 4 -10 198 173 198 186 0 20
-35 -7 -113 -86z"/>
<path d="M2406 915 c-3 -9 -6 -62 -6 -118 0 -85 4 -110 26 -166 65 -162 168
-256 320 -292 27 -6 59 -15 72 -20 13 -5 89 -9 170 -9 135 0 158 3 272 34
l125 33 3 51 c4 68 -10 92 -51 92 -65 -1 -214 -47 -334 -102 -37 -17 -60 -19
-160 -16 -109 3 -123 5 -183 35 -75 37 -113 70 -156 133 -58 87 -77 146 -79
252 -2 98 -7 124 -19 93z"/>
<path d="M4390 901 c0 -16 5 -33 10 -36 6 -4 10 6 10 24 0 16 -4 33 -10 36 -6
4 -10 -6 -10 -24z"/>
<path d="M4393 778 c-24 -166 -123 -296 -272 -356 -74 -30 -249 -32 -313 -3
-87 39 -121 53 -152 63 -71 22 -143 37 -178 38 -41 0 -42 -1 -52 -92 l-6 -47
43 -11 c23 -6 65 -17 92 -25 28 -7 69 -18 91 -24 23 -6 103 -11 178 -11 138 0
241 18 323 55 17 8 34 15 38 15 3 0 13 6 20 13 8 6 32 25 53 42 102 79 177
270 153 387 -6 29 -8 23 -18 -44z"/>
</g>
</svg>
